<?xml version="1.0" encoding="UTF-8"?>
<svg version="1.1" xmlns="http://www.w3.org/2000/svg" width="262" height="262">
<path d="M0 0 C86.46 0 172.92 0 262 0 C262 86.46 262 172.92 262 262 C175.54 262 89.08 262 0 262 C0 175.54 0 89.08 0 0 Z " fill="#131616" transform="translate(0,0)"/>
<path d="M0 0 C86.46 0 172.92 0 262 0 C262 86.46 262 172.92 262 262 C175.54 262 89.08 262 0 262 C0 175.54 0 89.08 0 0 Z M119 36 C118.30904576 38.07380567 118.30904576 38.07380567 118 40 C116.89591797 39.93039063 116.89591797 39.93039063 115.76953125 39.859375 C109.64465304 39.57246947 109.64465304 39.57246947 104 41.625 C99.96626514 46.41506015 98.6213411 50.48411989 98.70703125 56.7109375 C98.71669922 57.95488281 98.72636719 59.19882812 98.73632812 60.48046875 C98.76146484 61.76566406 98.78660156 63.05085938 98.8125 64.375 C98.82603516 65.68339844 98.83957031 66.99179688 98.85351562 68.33984375 C98.8887763 71.56031844 98.93806367 74.77994606 99 78 C97.515 77.505 97.515 77.505 96 77 C94.60560336 76.93334624 93.20830125 76.91461801 91.8125 76.9375 C90.554375 76.958125 89.29625 76.97875 88 77 C87.690625 75.88625 87.690625 75.88625 87.375 74.75 C85.25236439 70.50472877 81.97212786 68.72288251 77.63818359 67.13427734 C74.93828138 66.3034215 72.22819274 65.54496458 69.5 64.8125 C68.57574219 64.55275391 67.65148437 64.29300781 66.69921875 64.02539062 C54.56441245 60.31905624 54.56441245 60.31905624 42.50390625 62.2109375 C39.75314559 64.1763796 38.03128294 66.18027384 36 68.875 C33.18907688 72.51546246 30.30161148 75.79009995 27 79 C23.63537535 82.77000111 21.65627543 86.63173338 19.875 91.3125 C19.61710693 91.98039551 19.35921387 92.64829102 19.09350586 93.33642578 C14.73483418 104.45421611 14.73483418 104.45421611 16 116 C19.3997756 121.88521114 23.63509432 127.50704528 28.30859375 132.43359375 C30.57280246 135.8691252 30.44716629 138.8502158 30.25 142.8125 C30.23195313 143.50537109 30.21390625 144.19824219 30.1953125 144.91210938 C30.14851064 146.60867664 30.07677624 148.30452476 30 150 C28.92363281 149.94328125 27.84726562 149.8865625 26.73828125 149.828125 C22.90566778 150.00433711 21.87659976 150.20574636 19.1875 152.75 C18.62417969 153.26046875 18.06085937 153.7709375 17.48046875 154.296875 C14.72297511 157.46908404 13.75168812 160.21895253 13.70947266 164.39794922 C13.69671295 165.25919403 13.68395325 166.12043884 13.67080688 167.00778198 C13.66858124 167.9307608 13.66635559 168.85373962 13.6640625 169.8046875 C13.6574057 170.76142365 13.6507489 171.71815979 13.64389038 172.70388794 C13.63377358 174.72623779 13.62907306 176.74862096 13.62939453 178.77099609 C13.62502547 181.85700817 13.58870678 184.94158501 13.55078125 188.02734375 C13.54491199 189.99478679 13.54094333 191.9622366 13.5390625 193.9296875 C13.52469147 194.84861786 13.51032043 195.76754822 13.49551392 196.71432495 C13.54674308 203.93713465 15.46940581 207.4361572 20.59434605 212.62843227 C24.46116293 215.77653015 28.00466323 215.69842118 32.83665466 215.62818909 C33.71480601 215.63528347 34.59295735 215.64237786 35.49771935 215.64968723 C38.43439296 215.66726122 41.369742 215.64916536 44.30639648 215.63110352 C46.41412966 215.63624259 48.52185855 215.64352377 50.62957764 215.65278625 C56.35074593 215.67131092 62.07144858 215.65835418 67.79259753 215.63869596 C73.7804435 215.62231498 79.76825984 215.63112169 85.75611877 215.63621521 C95.81283 215.64073711 105.86935528 215.62486103 115.92602539 215.59692383 C127.55042912 215.56488034 139.17449734 215.56488407 150.79892486 215.5821386 C161.98277899 215.59800731 173.1665102 215.59126729 184.35035896 215.57420158 C189.10899187 215.56733163 193.86752624 215.56836305 198.62615776 215.57574654 C204.23148603 215.58341246 209.83643291 215.57127273 215.44169617 215.54389763 C217.49798513 215.53701568 219.55430973 215.53691377 221.61059761 215.54411316 C224.41961009 215.55281404 227.22744735 215.53684074 230.03636169 215.5146637 C231.25446861 215.52702485 231.25446861 215.52702485 232.49718374 215.53963572 C238.10641308 215.45800809 241.38517616 214.23111457 246 211 C250.24263911 205.47729508 250.58263073 200.94316347 250.49609375 194.12109375 C250.49754898 193.19079849 250.49900421 192.26050323 250.50050354 191.30201721 C250.49885076 189.34462334 250.48735946 187.38721562 250.46655273 185.42993164 C250.43755299 182.44295826 250.44596621 179.45775742 250.45898438 176.47070312 C250.45274737 174.56249142 250.44435674 172.65428529 250.43359375 170.74609375 C250.43652939 169.85844833 250.43946503 168.97080292 250.44248962 168.05625916 C250.34688663 161.74126173 249.30145168 157.3653809 244.75 152.6875 C241.46962919 150.67454519 238.80617265 150.29852335 235 150 C233.53526812 141.82070515 234.13688553 136.45214845 237.65234375 128.94140625 C239.72589468 124.41565597 241.01991819 119.87158311 242 115 C242.1753125 114.19046875 242.350625 113.3809375 242.53125 112.546875 C243.26082239 106.2644461 240.86421816 102.76091633 237.125 98 C234.86245194 95.21856261 232.53730286 92.53730286 230 90 C229.73838334 82.84243641 232.32107775 75.63866844 234.27148438 68.84179688 C236.55527364 60.75751709 236.55527364 60.75751709 234.375 52.875 C231.31740459 49.1737003 228.68630359 46.56863361 223.859375 45.546875 C219.70382087 45.23591517 216.66164003 45.72725414 213.25 48.1875 C208.64831108 52.66047035 206.69825371 58.94263423 205 65 C205 66.32 205 67.64 205 69 C204.34 69 203.68 69 203 69 C202.82984375 68.443125 202.6596875 67.88625 202.484375 67.3125 C199.83662678 58.97490988 197.57765466 52.15332705 190.078125 47.0703125 C186.79889957 45.38138812 184.60449502 45.34463727 181 46 C176.81398648 47.71600554 173.16893394 49.91730082 171 54 C171 55.32 171 56.64 171 58 C169.6696875 57.2575 169.6696875 57.2575 168.3125 56.5 C165.12413762 55.05621326 163.41812454 54.69840078 160 55 C160.1546875 53.4840625 160.1546875 53.4840625 160.3125 51.9375 C159.930734 47.12724838 158.39213209 44.38320543 155 41 C152.13812945 39.22163599 149.96048211 38.79868274 146.625 38.6875 C141.58702274 38.24905534 139.64158437 36.38752035 136 33 C134.09291157 32.08571661 134.09291157 32.08571661 132 32 C130.329375 31.8453125 130.329375 31.8453125 128.625 31.6875 C124.28304961 32.06180607 122.28755129 33.1820989 119 36 Z " fill="#0F0F0F" transform="translate(0,0)"/>
<path d="M0 0 C2.95348906 0.51686059 3.67940635 1.10829037 5.5 3.4375 C5.86076355 5.46867371 5.86076355 5.46867371 5.84057617 7.81713867 C5.84023628 9.13816841 5.84023628 9.13816841 5.83988953 10.48588562 C5.82440567 11.43284805 5.80892181 12.37981049 5.79296875 13.35546875 C5.78872391 14.32784988 5.78447906 15.30023102 5.78010559 16.30207825 C5.76330315 19.40999966 5.72564779 22.51727434 5.6875 25.625 C5.6724552 27.73111043 5.65876644 29.83723102 5.64648438 31.94335938 C5.61339444 37.10832238 5.56160109 42.27280151 5.5 47.4375 C7.15 47.4375 8.8 47.4375 10.5 47.4375 C10.48428955 46.33237061 10.4685791 45.22724121 10.45239258 44.08862305 C10.39811443 39.99055259 10.36365776 35.89251393 10.33520508 31.79418945 C10.32011359 30.02004657 10.29963809 28.24594102 10.27368164 26.47192383 C10.23731359 23.92259513 10.22027762 21.37375941 10.20703125 18.82421875 C10.19154739 18.03037277 10.17606354 17.23652679 10.16011047 16.41862488 C10.15843387 10.93922691 10.15843387 10.93922691 11.86206055 8.43676758 C14.22944967 6.99248025 15.78202737 7.0298041 18.5 7.4375 C20.51008497 8.98804693 21.39504372 9.86866388 21.86076355 12.39274597 C21.85410172 13.13220963 21.84743988 13.87167328 21.84057617 14.63354492 C21.84023628 15.89451241 21.84023628 15.89451241 21.83988953 17.18095398 C21.82440567 18.08416885 21.80892181 18.98738373 21.79296875 19.91796875 C21.78872391 20.84595779 21.78447906 21.77394684 21.78010559 22.73005676 C21.76330662 25.69533243 21.72565216 28.6599296 21.6875 31.625 C21.67245474 33.63475581 21.65876606 35.64452227 21.64648438 37.65429688 C21.61339908 42.58229286 21.56160833 47.50978138 21.5 52.4375 C23.48 51.9425 23.48 51.9425 25.5 51.4375 C25.51981934 50.63006348 25.53963867 49.82262695 25.56005859 48.99072266 C25.65505899 45.34764125 25.76483912 41.70515314 25.875 38.0625 C25.92140625 36.15597656 25.92140625 36.15597656 25.96875 34.2109375 C26.00742188 32.99921875 26.04609375 31.7875 26.0859375 30.5390625 C26.1173584 29.41838379 26.1487793 28.29770508 26.18115234 27.14306641 C26.5 24.4375 26.5 24.4375 28.5 22.4375 C31.79714793 22.76721479 33.1226839 23.0601839 35.5 25.4375 C35.76069641 27.80157471 35.76069641 27.80157471 35.7746582 30.80175781 C35.78419022 31.92342346 35.79372223 33.04508911 35.80354309 34.20074463 C35.80263168 35.41840515 35.80172028 36.63606567 35.80078125 37.890625 C35.80506638 39.13873962 35.8093515 40.38685425 35.81376648 41.67279053 C35.81952024 44.31927471 35.82093388 46.9653703 35.81567383 49.61181641 C35.8098983 52.9923266 35.8267593 56.37228547 35.8500185 59.75270462 C35.8683638 62.98617359 35.86456879 66.21961339 35.86328125 69.453125 C35.872491 70.6626886 35.88170074 71.8722522 35.89118958 73.11846924 C35.83855044 82.70415276 34.47798165 86.45951835 27.5 93.4375 C27.17 98.7175 26.84 103.9975 26.5 109.4375 C13.3 109.4375 0.1 109.4375 -13.5 109.4375 C-13.995 102.5075 -13.995 102.5075 -14.5 95.4375 C-18.63503289 90.91078226 -18.63503289 90.91078226 -21.78515625 88.2890625 C-26.22971911 83.62067274 -28.38651627 77.95919772 -30.90625 72.09765625 C-32.3708367 68.44014372 -32.3708367 68.44014372 -34.5 65.4375 C-34.77696829 62.76775406 -34.96428412 60.17578378 -35.0625 57.5 C-35.24513459 51.39206101 -35.24513459 51.39206101 -36.5 45.4375 C-33.26679354 45.74569126 -31.81697548 46.12418897 -29.47265625 48.44140625 C-28.84230469 49.28574219 -28.21195313 50.13007812 -27.5625 51 C-26.8715625 51.89976563 -26.180625 52.79953125 -25.46875 53.7265625 C-24.26575349 55.3830696 -23.09110902 57.06126736 -21.96875 58.7734375 C-18.73105644 63.61199066 -16.29561274 65.30128481 -10.67578125 66.8125 C-5.82365226 68.2062893 -2.70630186 70.72703256 -0.1875 75 C1.5 78.4375 1.5 78.4375 2.5 81.4375 C3.49 81.4375 4.48 81.4375 5.5 81.4375 C3.62804239 74.19597978 1.04094286 68.28671905 -5.4921875 64.1875 C-8.33965356 62.72615893 -11.14368434 61.55350975 -14.1875 60.5625 C-17.55807874 58.92275899 -19.68718742 56.66272689 -21.5 53.4375 C-22.19504001 50.13203517 -22.15508494 46.91841976 -22.09375 43.55078125 C-22.09379028 42.61195602 -22.09383057 41.6731308 -22.09387207 40.70585632 C-22.08852896 38.72986116 -22.07099815 36.75386566 -22.04199219 34.77807617 C-21.99998863 31.74918028 -22.00093869 28.72249859 -22.0078125 25.69335938 C-21.99732458 23.77081785 -21.98438863 21.84828778 -21.96875 19.92578125 C-21.96854858 19.01951492 -21.96834717 18.1132486 -21.96813965 17.17951965 C-21.94427185 15.91757027 -21.94427185 15.91757027 -21.91992188 14.63012695 C-21.91150269 13.89099564 -21.9030835 13.15186432 -21.89440918 12.39033508 C-21.38587063 9.87241213 -20.55285343 8.94924273 -18.5 7.4375 C-14.85265021 7.66080713 -13.11627165 7.82122835 -10.5 10.4375 C-10.32474945 13.23434797 -10.26856811 15.9307808 -10.3046875 18.7265625 C-10.3075174 19.54498627 -10.31034729 20.36341003 -10.31326294 21.20663452 C-10.32447468 23.82540393 -10.34958071 26.44383364 -10.375 29.0625 C-10.38502853 30.83593257 -10.3941546 32.60937049 -10.40234375 34.3828125 C-10.42441722 38.73450626 -10.45895356 43.0859455 -10.5 47.4375 C-8.85 47.4375 -7.2 47.4375 -5.5 47.4375 C-5.51571045 46.15584961 -5.5314209 44.87419922 -5.54760742 43.55371094 C-5.60191556 38.79775275 -5.63635342 34.04182198 -5.66479492 29.28564453 C-5.6798795 27.22732941 -5.70034987 25.16904642 -5.72631836 23.11083984 C-5.76271585 20.15193756 -5.77972966 17.19346033 -5.79296875 14.234375 C-5.80845261 13.31444763 -5.82393646 12.39452026 -5.83988953 11.44671631 C-5.84156437 5.0857315 -5.84156437 5.0857315 -4.13793945 1.85253906 C-2.5 0.4375 -2.5 0.4375 0 0 Z " fill="#EFEEED" transform="translate(129.5,41.5625)"/>
<path d="M0 0 C6.26746507 2.19361277 6.26746507 2.19361277 8.43359375 4.578125 C10.45311614 6.41130742 11.62194564 6.35850272 14.3125 6.4375 C18.84457154 6.81333032 21.48207798 7.98463827 25 11 C28.20219742 14.94937682 28.29402058 18.00165008 28 23 C29.0725 23.12375 30.145 23.2475 31.25 23.375 C34.37863615 23.89643936 36.33480424 24.40088254 39 26 C39.061875 25.278125 39.12375 24.55625 39.1875 23.8125 C40.43480066 19.4949208 43.26434873 17.21495589 46.875 14.6875 C50.82185725 13.4105756 54.08207445 13.2109322 57.984375 14.81640625 C65.25278887 19.30986366 68.06407129 27.32988623 71 35 C71 35.66 71 36.32 71 37 C71.66 37 72.32 37 73 37 C73.0825 36.236875 73.165 35.47375 73.25 34.6875 C74.78305189 27.14999487 76.5637269 19.73567966 83.0078125 14.96484375 C86.6921605 13.18046345 90.03933811 13.16161172 94 14 C98.79880601 16.35413125 101.74884912 19.1375141 104 24 C104.74534655 31.4087447 101.72945502 39.25750187 99.72875977 46.3112793 C97.9685198 52.07615886 97.9685198 52.07615886 98 58 C99.5849503 60.3316866 99.5849503 60.3316866 101.75 62.4375 C102.47703125 63.22125 103.2040625 64.005 103.953125 64.8125 C104.96632812 65.8953125 104.96632812 65.8953125 106 67 C109.6709384 71.31335262 110.67882098 74.41776268 110.4609375 79.95703125 C109.33368877 87.39878347 106.67193348 94.67820968 103.96484375 101.67578125 C101.78062195 107.39539463 101.95772715 111.98495549 103 118 C104.03125 118.061875 105.0625 118.12375 106.125 118.1875 C111.00890873 119.21154538 112.54123054 120.46079404 116 124 C118.57436694 128.65735867 118.33985173 133.43024449 118.37109375 138.61328125 C118.38012222 139.54166306 118.3891507 140.47004486 118.39845276 141.42655945 C118.41293243 143.38744901 118.42183631 145.34838664 118.42553711 147.30932617 C118.4374197 150.29234257 118.48661563 153.27327994 118.53710938 156.25585938 C118.54657626 158.16665664 118.55381002 160.07746653 118.55859375 161.98828125 C118.57812607 162.8718782 118.59765839 163.75547516 118.61778259 164.66584778 C118.57408333 170.73533902 117.35544226 175.56336836 113 180 C107.93501307 183.13637811 103.93781239 183.43596594 98.17007446 183.40786743 C97.29262868 183.41536967 96.4151829 183.4228719 95.51114786 183.43060148 C92.57714614 183.4518977 89.64354585 183.4518181 86.70947266 183.45166016 C84.60336182 183.46227591 82.49725681 183.47410646 80.39115906 183.48706055 C74.67420043 183.51782843 68.95736698 183.52898077 63.24033403 183.53470278 C59.66791265 183.53905781 56.09552368 183.54743318 52.52311325 183.55720139 C40.0583607 183.59094148 27.59370281 183.60808233 15.12890625 183.61083984 C3.51235009 183.61387563 -8.10367426 183.65433601 -19.72007596 183.71198809 C-29.69648087 183.75975629 -39.67271011 183.7805719 -49.64922869 183.78063047 C-55.60650775 183.78116867 -61.56326578 183.79277059 -67.5204277 183.83180618 C-73.12345312 183.86765185 -78.72550664 183.86996194 -84.32858849 183.84663391 C-86.38287585 183.8437725 -88.43722031 183.85283861 -90.49139214 183.87481308 C-107.94759185 184.04994657 -107.94759185 184.04994657 -113.15933228 179.69735718 C-116.44830137 176.02760413 -118.24058987 172.54546448 -118.29052734 167.60205078 C-118.30328705 166.74080597 -118.31604675 165.87956116 -118.32919312 164.99221802 C-118.33141876 164.0692392 -118.33364441 163.14626038 -118.3359375 162.1953125 C-118.3425943 161.23857635 -118.3492511 160.28184021 -118.35610962 159.29611206 C-118.36622642 157.27376221 -118.37092694 155.25137904 -118.37060547 153.22900391 C-118.37497453 150.14299183 -118.41129322 147.05841499 -118.44921875 143.97265625 C-118.45508801 142.00521321 -118.45905667 140.0377634 -118.4609375 138.0703125 C-118.47530853 137.15138214 -118.48967957 136.23245178 -118.50448608 135.28567505 C-118.45506327 128.31754321 -116.60516247 124.67557227 -111.6875 119.625 C-108.28082125 117.56514773 -105.91590915 117.88064052 -102 118 C-101.0315821 110.22037621 -100.55403935 104.04171348 -105.38134766 97.58862305 C-106.69969302 95.99818964 -108.04469021 94.44201108 -109.421875 92.90234375 C-113.6705584 88.11935623 -116.71738548 84.10135701 -117.16015625 77.67578125 C-116.53513694 67.23338539 -112.06880542 53.51784831 -104.125 46.4375 C-103.09375 45.633125 -102.0625 44.82875 -101 44 C-98.84437415 41.23669296 -96.83101555 38.40165947 -94.83203125 35.5234375 C-92.36621098 32.12701982 -91.01624182 30.33874727 -87 29 C-81.26282668 28.73145146 -76.3008012 29.35266735 -70.75 30.75 C-70.01491211 30.93046875 -69.27982422 31.1109375 -68.52246094 31.296875 C-49.45699903 36.08193211 -49.45699903 36.08193211 -45 41 C-44.1875 43.25 -44.1875 43.25 -44 45 C-42.01432292 44.96744792 -40.02864583 44.93489583 -38.04296875 44.90234375 C-36 45 -36 45 -33 46 C-33.0314209 44.78268188 -33.0314209 44.78268188 -33.06347656 43.54077148 C-33.14697084 39.83980858 -33.19876755 36.13904434 -33.25 32.4375 C-33.28351563 31.16068359 -33.31703125 29.88386719 -33.3515625 28.56835938 C-33.47612206 16.5795018 -33.47612206 16.5795018 -29 11 C-26.63888648 8.59498148 -25.56568672 8.05925489 -22.203125 7.70703125 C-21.22859375 7.74183594 -20.2540625 7.77664062 -19.25 7.8125 C-17.77273437 7.85310547 -17.77273437 7.85310547 -16.265625 7.89453125 C-15.14414063 7.94673828 -15.14414063 7.94673828 -14 8 C-13.88914062 7.38640625 -13.77828125 6.7728125 -13.6640625 6.140625 C-13 4 -13 4 -10.375 1.75 C-6.43276792 -0.29412034 -4.38619647 -0.53865571 0 0 Z M-12 9 C-12.33 9.66 -12.66 10.32 -13 11 C-13.58007812 10.95359375 -14.16015625 10.9071875 -14.7578125 10.859375 C-20.3904175 10.59912262 -23.58919824 11.12710089 -28 15 C-30.40607658 18.5609519 -30.34334292 22.23167238 -30.4140625 26.390625 C-30.43342865 27.09523865 -30.4527948 27.79985229 -30.4727478 28.52581787 C-30.53232735 30.76709039 -30.57884123 33.00841489 -30.625 35.25 C-30.66319979 36.77345938 -30.70225269 38.29689762 -30.7421875 39.8203125 C-30.83801018 43.54668106 -30.92212107 47.27320835 -31 51 C-32.485 50.01 -32.485 50.01 -34 49 C-38.33070198 47.76265658 -42.53382725 47.92430216 -47 48 C-47 47.278125 -47 46.55625 -47 45.8125 C-48.55760791 41.43172777 -51.95377228 40.01980609 -56 38 C-59.38693457 36.79568903 -62.8037775 35.95759129 -66.3125 35.1875 C-67.23949707 34.9810083 -68.16649414 34.7745166 -69.12158203 34.56176758 C-78.55033707 32.17824679 -78.55033707 32.17824679 -88 33 C-92.17932671 36.14437056 -94.67073794 40.27260022 -97.125 44.8125 C-99.15785133 48.26834727 -100.60006403 49.0820874 -104 51 C-109.53837887 58.31066011 -113.80817284 70.62648857 -113.57421875 79.8046875 C-112.04981835 85.63266728 -107.14648857 90.90968123 -102.91015625 95.03515625 C-97.73503665 100.35843879 -97.46271079 104.91444141 -97.5625 112.0625 C-97.65315064 115.04954924 -97.80881042 118.01683554 -98 121 C-98.66386719 120.95359375 -99.32773438 120.9071875 -100.01171875 120.859375 C-105.76635783 120.59606782 -105.76635783 120.59606782 -111 122.75 C-113.94317812 126.06107539 -115.2454835 128.68130715 -115.2746582 133.12255859 C-115.28419022 133.92374115 -115.29372223 134.72492371 -115.30354309 135.55038452 C-115.30263168 136.407742 -115.30172028 137.26509949 -115.30078125 138.1484375 C-115.30506638 139.03858551 -115.3093515 139.92873352 -115.31376648 140.84585571 C-115.31950319 142.72698111 -115.3200149 144.60812868 -115.31567383 146.48925781 C-115.31251891 149.35781005 -115.33596345 152.22532559 -115.36132812 155.09375 C-115.36360179 156.92447787 -115.3643043 158.7552085 -115.36328125 160.5859375 C-115.372491 161.43924652 -115.38170074 162.29255554 -115.39118958 163.17172241 C-115.34358476 169.34310788 -114.37858118 173.55313394 -109.92537403 178.13418484 C-106.0898457 180.58050002 -102.80959376 180.55976926 -98.40422058 180.5146637 C-97.53987988 180.52160922 -96.67553918 180.52855475 -95.78500634 180.53571075 C-92.88920451 180.55400453 -89.99421973 180.54370975 -87.09838867 180.53344727 C-85.02198167 180.54050464 -82.94557982 180.54924889 -80.8691864 180.55955505 C-75.22854526 180.58208199 -69.58818428 180.57910109 -63.94751525 180.57023358 C-59.23830199 180.56512706 -54.52914153 180.57241375 -49.81993371 180.57970566 C-38.70860363 180.59671601 -27.59741084 180.59312831 -16.48608398 180.57641602 C-5.02584677 180.55950167 6.43400935 180.57531744 17.89420491 180.6076389 C27.73471768 180.63434021 37.57511187 180.64160906 47.41565722 180.63312382 C53.29234088 180.62819522 59.16879533 180.63040651 65.04545021 180.65091133 C70.57365891 180.66927611 76.1013201 180.66329945 81.62949944 180.63871193 C83.65635022 180.63370622 85.68324277 180.63718752 87.71006012 180.64986038 C90.48175705 180.66581695 93.25165687 180.65081559 96.02326965 180.62818909 C96.82143736 180.64002482 97.61960507 180.65186054 98.44195968 180.66405493 C104.24766065 180.5680663 108.63330867 178.91806759 113 175 C114.67884144 172.15457819 115.25943897 170.0961834 115.32226562 166.80151367 C115.34148071 165.98353806 115.3606958 165.16556244 115.38049316 164.32279968 C115.38899292 163.44670547 115.39749268 162.57061127 115.40625 161.66796875 C115.41765015 160.75799637 115.42905029 159.84802399 115.4407959 158.91047668 C115.45966753 156.98650747 115.47275263 155.06247403 115.48046875 153.13842773 C115.49986655 150.20766309 115.56191809 147.27971488 115.625 144.34960938 C115.63806316 142.47657909 115.6485629 140.60352882 115.65625 138.73046875 C115.69329041 137.42543648 115.69329041 137.42543648 115.7310791 136.09403992 C115.68972377 130.39300642 114.46541609 127.4305121 110.53890991 123.27728271 C108.4317564 121.52836243 106.8480818 121.10375882 104.125 121.0625 C103.34382812 121.03285156 102.56265625 121.00320312 101.7578125 120.97265625 C101.17773438 120.98167969 100.59765625 120.99070312 100 121 C97.93938787 111.21829905 97.07991249 104.80942616 102.39453125 95.8828125 C105.8413971 89.69354974 107.64202335 82.0811399 107 75 C105.73743123 72.59175642 105.73743123 72.59175642 103.875 70.5 C103.23949219 69.73816406 102.60398438 68.97632812 101.94921875 68.19140625 C99.39041872 65.31467916 96.8542516 62.58873982 94 60 C93.34 60 92.68 60 92 60 C92.36351562 58.79839233 92.36351562 58.79839233 92.734375 57.57250977 C93.63877764 54.56167512 94.53195406 51.54778649 95.41796875 48.53149414 C95.98895602 46.59986143 96.57248373 44.67194983 97.15625 42.74414062 C99.13835995 35.9660325 100.69464785 30.07078388 100 23 C97.96322726 19.84628737 96.40554078 18.50640808 92.875 17.234375 C90.37141556 16.70997556 88.53236028 16.63732328 86 17 C80.17739786 21.2361337 78.14405145 28.10263902 76.125 34.6875 C75.66480469 36.09225586 75.66480469 36.09225586 75.1953125 37.52539062 C73.89331806 41.5970295 73 44.67935969 73 49 C72.34 49 71.68 49 71 49 C70.90332031 48.1853125 70.80664062 47.370625 70.70703125 46.53125 C69.8516942 42.25929037 68.36655736 38.50580143 66.6875 34.5 C66.24374023 33.39978516 66.24374023 33.39978516 65.79101562 32.27734375 C63.46244236 26.65456856 61.20234943 21.46823295 56 18 C51.94414513 17.54085982 51.94414513 17.54085982 48 18 C45.03949126 20.29199403 45.03949126 20.29199403 43 23 C42.67 23.33 42.34 23.66 42 24 C41.49626597 30.80040943 43.00003972 36.52393814 45 43 C44.01 43.66 43.02 44.32 42 45 C41.63469768 48.12557959 41.63469768 48.12557959 41.8125 51.625 C41.83957031 52.81351563 41.86664063 54.00203125 41.89453125 55.2265625 C41.92933594 56.14179687 41.96414062 57.05703125 42 58 C43.99983534 57.20882096 43.99983534 57.20882096 46 56 C46.97608217 53.07175348 47.08226668 51.04386724 47 48 C48.99097846 50.98646769 49.94124926 53.59687262 51 57 C50.401875 57.268125 49.80375 57.53625 49.1875 57.8125 C44.50870603 60.35241673 43.59549796 63.00077306 42 68 C41.34 68.66 40.68 69.32 40 70 C39.9906543 68.94087402 39.98130859 67.88174805 39.97167969 66.79052734 C39.93166151 62.84284149 39.8658709 58.89592529 39.79248047 54.94873047 C39.76433913 53.24375329 39.74309065 51.53864731 39.72900391 49.83349609 C39.70747863 47.37530911 39.660783 44.91865952 39.609375 42.4609375 C39.60753204 41.32620499 39.60753204 41.32620499 39.60565186 40.16854858 C39.46507605 35.03351101 38.33615966 32.10320999 35 28 C31.78542734 25.64264672 28.90339153 25.82257311 25 26 C25.185625 24.2365625 25.185625 24.2365625 25.375 22.4375 C25.35903844 17.95230024 23.92150543 15.54478238 20.85546875 12.34765625 C17.6077433 9.98878198 14.97757466 10 11 10 C10.01 10.33 9.02 10.66 8 11 C7.773125 10.401875 7.54625 9.80375 7.3125 9.1875 C5.55823799 6.26372999 4.13150836 5.36152537 1 4 C-5.08591627 2.86659049 -8.07026049 3.99851335 -12 9 Z " fill="#04ADEE" transform="translate(132,32)"/>
<path d="M0 0 C9.45591654 0.06335622 18.8962388 1.31027174 28.14453125 3.265625 C28.50124358 9.4486387 28.50124358 9.4486387 27.17578125 12.484375 C23.94388591 15.3184986 20.59619314 14.69219302 16.45703125 14.515625 C15.65974609 14.49757813 14.86246094 14.47953125 14.04101562 14.4609375 C12.07500676 14.41384747 10.10961631 14.34210399 8.14453125 14.265625 C7.81453125 15.585625 7.48453125 16.905625 7.14453125 18.265625 C7.71300781 18.36359375 8.28148438 18.4615625 8.8671875 18.5625 C15.29444178 19.80717696 20.46660209 21.41492622 25.08203125 26.328125 C26.7373489 30.90459143 26.37220013 35.45084986 26.14453125 40.265625 C27.46453125 40.265625 28.78453125 40.265625 30.14453125 40.265625 C30.14453125 36.635625 30.14453125 33.005625 30.14453125 29.265625 C36.89453125 30.140625 36.89453125 30.140625 39.14453125 31.265625 C40.51795956 31.3345722 41.89455227 31.35030208 43.26953125 31.328125 C45.18765625 31.2971875 45.18765625 31.2971875 47.14453125 31.265625 C49.16508968 26.87310667 50.5534836 23.11221577 51.14453125 18.265625 C50.48453125 18.265625 49.82453125 18.265625 49.14453125 18.265625 C48.85578125 19.19375 48.56703125 20.121875 48.26953125 21.078125 C47.14453125 24.265625 47.14453125 24.265625 45.14453125 27.265625 C42.70703125 27.640625 42.70703125 27.640625 40.14453125 27.265625 C38.33203125 25.765625 38.33203125 25.765625 37.14453125 24.265625 C38.48524248 19.17092231 40.93823383 15.17665824 43.6796875 10.74609375 C45.49548622 7.67134125 46.8449833 4.58669197 48.14453125 1.265625 C51.01177811 1.83907437 52.00598275 2.1270765 54.14453125 4.265625 C54.78084545 9.48550147 54.78122047 14.76058843 54.83203125 20.015625 C54.845793 21.1532579 54.845793 21.1532579 54.85983276 22.31387329 C54.91732127 32.47662359 54.64569008 40.42172141 47.2109375 47.99609375 C43.94067918 52.60007067 43.94067918 52.60007067 44.14453125 65.265625 C31.27453125 65.265625 18.40453125 65.265625 5.14453125 65.265625 C5.45390625 62.378125 5.76328125 59.490625 6.08203125 56.515625 C6.57062067 47.08757186 3.54581417 41.70403583 -2.41796875 34.578125 C-3.14056885 33.77858398 -3.86316895 32.97904297 -4.60766602 32.15527344 C-9.69689504 26.38888502 -9.69689504 26.38888502 -10.18286133 22.9465332 C-9.96797955 20.59730887 -9.5256341 18.5256644 -8.85546875 16.265625 C-8.67459717 15.61005615 -8.49372559 14.9544873 -8.30737305 14.27905273 C-7.74795323 12.4391884 -7.08386986 10.63218349 -6.41796875 8.828125 C-5.98613281 7.63316406 -5.55429687 6.43820313 -5.109375 5.20703125 C-3.07745376 0.4405618 -3.07745376 0.4405618 0 0 Z " fill="#EFEEED" transform="translate(34.85546875,86.734375)"/>
<path d="M0 0 C19.8085629 0.03903165 19.8085629 0.03903165 24.90234375 5.1328125 C25.83046875 6.0403125 26.75859375 6.9478125 27.71484375 7.8828125 C30.41018765 11.88732343 30.71631282 14.5252995 29.90234375 19.1328125 C28.13682295 26.4547947 26.1310661 31.78972898 21.90234375 38.1328125 C22.39734375 46.5478125 22.39734375 46.5478125 22.90234375 55.1328125 C11.35234375 55.1328125 -0.19765625 55.1328125 -12.09765625 55.1328125 C-13.08765625 51.8328125 -14.07765625 48.5328125 -15.09765625 45.1328125 C-17.41120839 42.06860787 -17.41120839 42.06860787 -20.16015625 39.6328125 C-25.07968073 34.5416767 -26.62931674 31.09404063 -27.09765625 24.1328125 C-27.236875 23.16601562 -27.37609375 22.19921875 -27.51953125 21.203125 C-28.50552827 13.76870746 -28.50552827 13.76870746 -26.609375 10.8125 C-26.11050781 10.25820312 -25.61164063 9.70390625 -25.09765625 9.1328125 C-20.74672545 10.00570989 -17.88068023 12.35834699 -14.47265625 15.0703125 C-13.59480469 15.75383789 -13.59480469 15.75383789 -12.69921875 16.45117188 C-10.39066703 18.25936089 -8.17286886 20.05759989 -6.09765625 22.1328125 C-5.91015625 24.6953125 -5.91015625 24.6953125 -6.09765625 27.1328125 C-7.09765625 28.1328125 -7.09765625 28.1328125 -10.09765625 28.5078125 C-15.12518947 28.486908 -18.97034814 25.75332558 -23.09765625 23.1328125 C-22.15792427 26.51584764 -21.17027105 28.06728207 -18.53515625 30.4453125 C-14.2656629 32.5412456 -10.77411932 33.19079559 -6.09765625 32.1328125 C-3.72889199 29.88248645 -2.53918236 28.01586472 -1.09765625 25.1328125 C-0.43765625 25.1328125 0.22234375 25.1328125 0.90234375 25.1328125 C1.56234375 29.7528125 2.22234375 34.3728125 2.90234375 39.1328125 C4.22234375 39.1328125 5.54234375 39.1328125 6.90234375 39.1328125 C6.74507812 38.60300781 6.5878125 38.07320312 6.42578125 37.52734375 C5.19198839 31.88320177 4.54638402 25.05334116 7.01953125 19.7265625 C8.40234375 17.8203125 8.40234375 17.8203125 10.90234375 15.1328125 C12.22234375 15.7928125 13.54234375 16.4528125 14.90234375 17.1328125 C14.90234375 17.7928125 14.90234375 18.4528125 14.90234375 19.1328125 C15.89234375 18.8028125 16.88234375 18.4728125 17.90234375 18.1328125 C16.82833267 15.21763958 16.12424199 13.35471074 13.90234375 11.1328125 C10.36176766 10.78230434 6.84063117 10.68927065 3.28515625 10.57421875 C-0.20935921 10.11823694 -1.69353245 9.66817879 -4.09765625 7.1328125 C-4.41015625 4.0078125 -4.41015625 4.0078125 -4.09765625 1.1328125 C-3.09765625 0.1328125 -3.09765625 0.1328125 0 0 Z " fill="#F0EFEE" transform="translate(202.09765625,95.8671875)"/>
<path d="M0 0 C0.33 0.99 0.66 1.98 1 3 C0.40832031 3.01417969 -0.18335937 3.02835938 -0.79296875 3.04296875 C-5.25565665 3.31233164 -7.43075204 3.53748603 -11 6.4375 C-14.46263459 10.87400057 -14.17642028 14.5009323 -14.203125 19.953125 C-14.20882507 20.84610291 -14.21452515 21.73908081 -14.22039795 22.65911865 C-14.22985486 24.55219333 -14.23638467 26.44528452 -14.24023438 28.33837891 C-14.24991474 31.22457976 -14.28092091 34.11006089 -14.3125 36.99609375 C-14.31903264 38.83593327 -14.32428209 40.67577789 -14.328125 42.515625 C-14.3404718 43.37520813 -14.3528186 44.23479126 -14.36553955 45.12042236 C-14.34415361 50.92060642 -13.62345328 55.27681254 -9.42204762 59.63794041 C-5.88908481 61.62473284 -2.46486175 61.41702287 1.48225403 61.38768005 C2.34644587 61.39306559 3.21063771 61.39845113 4.10101718 61.40399987 C7.00214056 61.41832836 9.90281079 61.41116362 12.80395508 61.40405273 C14.8818346 61.40975383 16.95971098 61.41671707 19.0375824 61.42485046 C24.68644069 61.44282801 30.33514404 61.44160457 35.98402238 61.43590808 C40.69824239 61.43282217 45.41243238 61.43890217 50.12664813 61.44494683 C61.24892677 61.4590062 72.37112864 61.45741965 83.4934082 61.44604492 C94.96892876 61.43456828 106.44421548 61.44862865 117.91970521 61.4754414 C127.76951203 61.49759434 137.61924542 61.5042365 147.46907538 61.49836498 C153.35297884 61.49499253 159.23673248 61.49742949 165.12061501 61.51461601 C170.65530126 61.53007595 176.18964121 61.52613988 181.72431374 61.50731087 C183.75481093 61.50362206 185.78533371 61.50674191 187.81580734 61.51719666 C190.58986946 61.53038848 193.36278223 61.51887489 196.13679504 61.50120544 C196.93855771 61.51081045 197.74032038 61.52041546 198.56637889 61.53031152 C204.1393608 61.45738022 207.39760403 60.17353263 212 57 C213.95951366 54.26580858 214.24944436 52.07413156 214.24291992 48.75390625 C214.24599655 47.92624756 214.24907318 47.09858887 214.25224304 46.24584961 C214.24505753 45.36034424 214.23787201 44.47483887 214.23046875 43.5625 C214.23001053 42.6454126 214.22955231 41.7283252 214.2290802 40.78344727 C214.22606273 38.84682927 214.21819154 36.91021359 214.20581055 34.97363281 C214.18756761 32.01098012 214.18530089 29.04864048 214.18554688 26.0859375 C214.18063078 24.2031223 214.17480206 22.32030922 214.16796875 20.4375 C214.16629951 19.10924194 214.16629951 19.10924194 214.16459656 17.75415039 C214.15821671 16.9264917 214.15183685 16.09883301 214.14526367 15.24609375 C214.14145187 14.52091553 214.13764008 13.7957373 214.13371277 13.04858398 C213.99529191 10.92786832 213.57771305 9.0412899 213 7 C214.9375 7.3125 214.9375 7.3125 217 8 C217.90209274 10.70627822 218.14394784 12.37205226 218.19287109 15.16088867 C218.20893402 15.99573288 218.22499695 16.83057709 218.24154663 17.6907196 C218.2862455 21.51328536 218.32707831 25.3356808 218.35009766 29.15844727 C218.36662659 31.16898193 218.39387601 33.17945858 218.43212891 35.18969727 C218.48716948 38.09942892 218.5088148 41.00778513 218.5234375 43.91796875 C218.54610687 44.80783981 218.56877625 45.69771088 218.59213257 46.61454773 C218.57170854 52.71018239 217.38174465 57.54641622 213 62 C207.93475613 65.13613563 203.93795405 65.43596663 198.17007446 65.40786743 C196.85390579 65.41912078 196.85390579 65.41912078 195.51114786 65.43060148 C192.57714614 65.4518977 189.64354585 65.4518181 186.70947266 65.45166016 C184.60336182 65.46227591 182.49725681 65.47410646 180.39115906 65.48706055 C174.67420043 65.51782843 168.95736698 65.52898077 163.24033403 65.53470278 C159.66791265 65.53905781 156.09552368 65.54743318 152.52311325 65.55720139 C140.0583607 65.59094148 127.59370281 65.60808233 115.12890625 65.61083984 C103.51235009 65.61387563 91.89632574 65.65433601 80.27992404 65.71198809 C70.30351913 65.75975629 60.32728989 65.7805719 50.35077131 65.78063047 C44.39349225 65.78116867 38.43673422 65.79277059 32.4795723 65.83180618 C26.87654688 65.86765185 21.27449336 65.86996194 15.67141151 65.84663391 C13.61712415 65.8437725 11.56277969 65.85283861 9.50860786 65.87481308 C-7.94759185 66.04994657 -7.94759185 66.04994657 -13.15933228 61.69735718 C-16.44830137 58.02760413 -18.24058987 54.54546448 -18.29052734 49.60205078 C-18.30328705 48.74080597 -18.31604675 47.87956116 -18.32919312 46.99221802 C-18.33141876 46.0692392 -18.33364441 45.14626038 -18.3359375 44.1953125 C-18.3425943 43.23857635 -18.3492511 42.28184021 -18.35610962 41.29611206 C-18.36622642 39.27376221 -18.37092694 37.25137904 -18.37060547 35.22900391 C-18.37497453 32.14299183 -18.41129322 29.05841499 -18.44921875 25.97265625 C-18.45508801 24.00521321 -18.45905667 22.0377634 -18.4609375 20.0703125 C-18.47530853 19.15138214 -18.48967957 18.23245178 -18.50448608 17.28567505 C-18.46354549 11.51345306 -17.6871976 8.47611908 -14 4 C-13.5875 3.38125 -13.175 2.7625 -12.75 2.125 C-9.79001591 0.22215309 -6.4156995 0.64190247 -3 1 C-2.01 1.33 -1.02 1.66 0 2 C0 1.34 0 0.68 0 0 Z " fill="#03B3F7" transform="translate(32,150)"/>
<path d="M0 0 C0.87140625 -0.00515625 1.7428125 -0.0103125 2.640625 -0.015625 C3.99414062 0.00757813 3.99414062 0.00757813 5.375 0.03125 C6.27734375 0.01578125 7.1796875 0.0003125 8.109375 -0.015625 C8.98078125 -0.01046875 9.8521875 -0.0053125 10.75 0 C11.54148437 0.00451172 12.33296875 0.00902344 13.1484375 0.01367188 C16.32993134 0.75322965 17.46474962 1.89583179 19.375 4.53125 C19.89257812 7.76757812 19.89257812 7.76757812 19.90625 11.5625 C19.9100769 12.23543091 19.91390381 12.90836182 19.91784668 13.60168457 C19.9205613 15.0204417 19.91323134 16.43924927 19.89648438 17.85791016 C19.87506275 20.02490203 19.89629538 22.18857951 19.921875 24.35546875 C19.91923164 25.73698646 19.91410647 27.1185021 19.90625 28.5 C19.90173828 29.75232422 19.89722656 31.00464844 19.89257812 32.29492188 C19.375 35.53125 19.375 35.53125 17.63085938 37.9375 C15.07860455 39.74065146 13.84138575 40.04487809 10.75 40.0625 C9.87859375 40.06765625 9.0071875 40.0728125 8.109375 40.078125 C7.20703125 40.06265625 6.3046875 40.0471875 5.375 40.03125 C4.47265625 40.04671875 3.5703125 40.0621875 2.640625 40.078125 C1.76921875 40.07296875 0.8978125 40.0678125 0 40.0625 C-0.79148437 40.05798828 -1.58296875 40.05347656 -2.3984375 40.04882812 C-5.57993134 39.30927035 -6.71474962 38.16666821 -8.625 35.53125 C-9.14257812 32.29492188 -9.14257812 32.29492188 -9.15625 28.5 C-9.1600769 27.82706909 -9.16390381 27.15413818 -9.16784668 26.46081543 C-9.1705613 25.0420583 -9.16323134 23.62325073 -9.14648438 22.20458984 C-9.12506275 20.03759797 -9.14629538 17.87392049 -9.171875 15.70703125 C-9.16923164 14.32551354 -9.16410647 12.9439979 -9.15625 11.5625 C-9.15173828 10.31017578 -9.14722656 9.05785156 -9.14257812 7.76757812 C-8.625 4.53125 -8.625 4.53125 -6.88085938 2.125 C-4.32860455 0.32184854 -3.09138575 0.01762191 0 0 Z " fill="#F0F0EF" transform="translate(60.625,162.46875)"/>
<path d="M0 0 C1.35351562 -0.03577148 1.35351562 -0.03577148 2.734375 -0.07226562 C4.04148438 -0.06936523 4.04148438 -0.06936523 5.375 -0.06640625 C6.16648438 -0.06713135 6.95796875 -0.06785645 7.7734375 -0.06860352 C11.1741649 0.8953088 12.20155699 2.57986383 14 5.5625 C14.51757812 8.82055664 14.51757812 8.82055664 14.53125 12.47265625 C14.53640625 13.79201172 14.5415625 15.11136719 14.546875 16.47070312 C14.53849609 17.15269775 14.53011719 17.83469238 14.52148438 18.53735352 C14.5000197 20.62308572 14.52132969 22.70538833 14.546875 24.79101562 C14.54171875 26.10908203 14.5365625 27.42714844 14.53125 28.78515625 C14.52673828 29.98922119 14.52222656 31.19328613 14.51757812 32.43383789 C14 35.5625 14 35.5625 12.25585938 37.95288086 C9.70232933 39.7748964 8.47702616 40.07606744 5.375 40.09375 C4.50359375 40.09890625 3.6321875 40.1040625 2.734375 40.109375 C1.83203125 40.09390625 0.9296875 40.0784375 0 40.0625 C-0.90234375 40.07796875 -1.8046875 40.0934375 -2.734375 40.109375 C-3.60578125 40.10421875 -4.4771875 40.0990625 -5.375 40.09375 C-6.16648438 40.08923828 -6.95796875 40.08472656 -7.7734375 40.08007812 C-10.95493134 39.34052035 -12.08974962 38.19791821 -14 35.5625 C-14.51757812 32.32617188 -14.51757812 32.32617188 -14.53125 28.53125 C-14.5350769 27.85831909 -14.53890381 27.18538818 -14.54284668 26.49206543 C-14.5455613 25.0733083 -14.53823134 23.65450073 -14.52148438 22.23583984 C-14.50006275 20.06884797 -14.52129538 17.90517049 -14.546875 15.73828125 C-14.54423164 14.35676354 -14.53910647 12.9752479 -14.53125 11.59375 C-14.52673828 10.34142578 -14.52222656 9.08910156 -14.51757812 7.79882812 C-14 4.5625 -14 4.5625 -12.25585938 2.15844727 C-8.40063453 -0.56899914 -4.57981849 -0.05561208 0 0 Z " fill="#ECECEA" transform="translate(224,162.4375)"/>
<path d="M0 0 C2.64 0 5.28 0 8 0 C8 13.2 8 26.4 8 40 C5.36 40 2.72 40 0 40 C-5.445 30.1 -5.445 30.1 -11 20 C-11.33 26.93 -11.66 33.86 -12 41 C-14.64 41 -17.28 41 -20 41 C-20 27.8 -20 14.6 -20 1 C-17.36 1 -14.72 1 -12 1 C-10.35383182 4.12482372 -8.70812246 7.24988886 -7.0625 10.375 C-6.59392578 11.26445312 -6.12535156 12.15390625 -5.64257812 13.0703125 C-5.19462891 13.92109375 -4.74667969 14.771875 -4.28515625 15.6484375 C-3.87144775 16.43395996 -3.45773926 17.21948242 -3.03149414 18.02880859 C-2.34211376 19.34621859 -1.66495329 20.67009342 -1 22 C-0.67 14.74 -0.34 7.48 0 0 Z " fill="#EDEDEB" transform="translate(164,162)"/>
<path d="M0 0 C3.898125 -0.061875 7.79625 -0.12375 11.8125 -0.1875 C13.03815674 -0.21481201 14.26381348 -0.24212402 15.52661133 -0.27026367 C16.4936499 -0.27775635 17.46068848 -0.28524902 18.45703125 -0.29296875 C19.9416687 -0.31653442 19.9416687 -0.31653442 21.45629883 -0.34057617 C24 0 24 0 25.81933594 1.23535156 C28.14117142 4.7056218 27.46895818 8.89655417 27.4375 12.9375 C27.4674707 14.2977832 27.4674707 14.2977832 27.49804688 15.68554688 C27.49517631 19.58664268 27.46403836 22.21407174 25.45703125 25.61328125 C22.06726222 27.52642593 19.02457527 27.43551788 15.25 27.25 C14.55261719 27.23195312 13.85523438 27.21390625 13.13671875 27.1953125 C11.42388461 27.14838554 9.71176176 27.07664605 8 27 C8 30.96 8 34.92 8 39 C5.36 39 2.72 39 0 39 C0 26.13 0 13.26 0 0 Z " fill="#EFEEED" transform="translate(178,163)"/>
<path d="M0 0 C2.64 0 5.28 0 8 0 C8 4.95 8 9.9 8 15 C11.02154733 11.97845267 12.25243526 9.59833741 14.125 5.8125 C17.25827028 0.23702333 17.25827028 0.23702333 20.45703125 -0.78515625 C22.7484465 -0.7526795 24.77696676 -0.5444163 27 0 C25.15060521 5.116346 22.29640188 9.40939587 19.36328125 13.96484375 C17.69847116 17.67131206 17.78771233 19.15036813 19 23 C20.27069653 25.33052315 21.5413153 27.48672221 23 29.6875 C26.89610778 35.68832335 26.89610778 35.68832335 28 39 C24.87548528 39.49011996 22.10502798 39.67955158 19 39 C16.67071091 36.67071091 15.42623355 33.94226699 14 31 C11.64335003 26.85596707 11.64335003 26.85596707 8 24 C8 28.95 8 33.9 8 39 C5.36 39 2.72 39 0 39 C0 26.13 0 13.26 0 0 Z " fill="#F0F0EE" transform="translate(85,163)"/>
<path d="M0 0 C7.59 0 15.18 0 23 0 C23 2.31 23 4.62 23 7 C18.05 7 13.1 7 8 7 C8 9.97 8 12.94 8 16 C11.96 16 15.92 16 20 16 C20 18.31 20 20.62 20 23 C16.04 23 12.08 23 8 23 C8 25.97 8 28.94 8 32 C12.95 32 17.9 32 23 32 C23 34.31 23 36.62 23 39 C15.41 39 7.82 39 0 39 C0 26.13 0 13.26 0 0 Z " fill="#F4F3F2" transform="translate(116,163)"/>
<path d="M0 0 C2.44491554 2.21944782 3.83479972 4.37233347 5.3125 7.3125 C6.99744644 10.52828193 8.43514891 12.50234186 11.3125 14.6875 C13.83849345 16.94215912 14.00085239 18.00782971 14.37890625 21.48046875 C14.37538691 24.98925132 14.19829302 28.49682324 14 32 C6.41 32 -1.18 32 -9 32 C-10.40562558 24.55845282 -10.99561744 19.72688484 -6.90014648 13.32275391 C-5.66392526 11.55564158 -4.38837671 9.82421453 -3.1015625 8.09375 C-1.12867289 5.1894218 -0.34655313 3.43986071 0 0 Z " fill="#04ABEC" transform="translate(95,121)"/>
<path d="M0 0 C2.64 0 5.28 0 8 0 C8.09897181 5.05365292 8.17151603 10.10674024 8.21972656 15.16113281 C8.23982628 16.87998279 8.26711089 18.59876452 8.30175781 20.31738281 C8.35035034 22.78988489 8.37298435 25.2614821 8.390625 27.734375 C8.41127014 28.50118591 8.43191528 29.26799683 8.45318604 30.05804443 C8.45465556 33.56227382 8.28547433 35.60394914 6.20996094 38.48339844 C2.95331142 40.71829755 -0.1928289 40.58276459 -4 40.5 C-4.7115625 40.51546875 -5.423125 40.5309375 -6.15625 40.546875 C-9.51485086 40.52181081 -11.6617959 40.22334233 -14.484375 38.359375 C-16.44984031 35.29973312 -16.4068321 33.35713835 -16.25 29.75 C-16.21390625 28.67234375 -16.1778125 27.5946875 -16.140625 26.484375 C-16.09421875 25.66453125 -16.0478125 24.8446875 -16 24 C-13.36 24 -10.72 24 -8 24 C-7.67 26.31 -7.34 28.62 -7 31 C-4.69 31.33 -2.38 31.66 0 32 C0 21.44 0 10.88 0 0 Z " fill="#EAEAE9" transform="translate(39,163)"/>
<path d="M0 0 C7.20106289 0.24003543 7.20106289 0.24003543 10.5625 3.4375 C13.95517118 11.84542422 10.09749444 20.95991884 7.72875977 29.3112793 C5.9685198 35.07615886 5.9685198 35.07615886 6 41 C7.5849503 43.3316866 7.5849503 43.3316866 9.75 45.4375 C10.47703125 46.22125 11.2040625 47.005 11.953125 47.8125 C12.62859375 48.534375 13.3040625 49.25625 14 50 C17.6709384 54.31335262 18.67882098 57.41776268 18.4609375 62.95703125 C17.33368877 70.39878347 14.67193348 77.67820968 11.96484375 84.67578125 C9.78062195 90.39539463 9.95772715 94.98495549 11 101 C12.03125 101.061875 13.0625 101.12375 14.125 101.1875 C18.88462827 102.18548657 20.53592963 103.70490867 24 107 C22.02 107.99 22.02 107.99 20 109 C19.60167969 108.51917969 19.20335937 108.03835937 18.79296875 107.54296875 C16.56549753 105.62608175 15.21165331 105.52258357 12.3125 105.3125 C11.50425781 105.24675781 10.69601563 105.18101562 9.86328125 105.11328125 C9.24839844 105.07589844 8.63351563 105.03851563 8 105 C7.23941545 102.66754071 6.58523383 100.37938135 6 98 C5.71962891 96.87658203 5.71962891 96.87658203 5.43359375 95.73046875 C4.21330286 88.92542313 6.14391836 85.0234171 9.4296875 79.09375 C12.68694466 72.67646723 14.64493937 65.21947053 14 58 C12.77428286 55.59165371 12.77428286 55.59165371 10.9375 53.5 C10.3084375 52.72398438 9.679375 51.94796875 9.03125 51.1484375 C7.11410546 49.12068847 5.2269751 47.69674283 2.9375 46.125 C1.19921875 44.68359375 1.19921875 44.68359375 0 43 C-0.29482961 39.11236309 0.86580703 35.69262062 2 32 C2.87762982 29.1257971 3.75323227 26.25098653 4.625 23.375 C4.84824951 22.64023438 5.07149902 21.90546875 5.30151367 21.1484375 C6.85159254 15.89673953 7.8386697 11.49794584 7 6 C4.91286153 3.19315861 2.91823611 1.94549074 0 0 Z " fill="#04A9E9" transform="translate(224,49)"/>
<path d="M0 0 C0.66 0 1.32 0 2 0 C2.350625 0.99 2.70125 1.98 3.0625 3 C5.18475098 7.99953357 9.05877631 13.52938816 14 16 C14 18.97 14 21.94 14 25 C7.07 25 0.14 25 -7 25 C-7.66964286 9.73214286 -7.66964286 9.73214286 -4.625 6.3125 C-3.75875 5.549375 -2.8925 4.78625 -2 4 C-0.72147713 1.78412652 -0.72147713 1.78412652 0 0 Z " fill="#04A8E7" transform="translate(169,128)"/>
<path d="M0 0 C0.99 1.32 1.98 2.64 3 4 C-0.39810427 9.66350711 -0.39810427 9.66350711 -3.48046875 11.38671875 C-9.7539518 15.40369317 -11.81059226 25.5207425 -13.4765625 32.44921875 C-13.73566406 33.71185547 -13.73566406 33.71185547 -14 35 C-14.15210938 35.68707031 -14.30421875 36.37414062 -14.4609375 37.08203125 C-15.1665484 43.05539251 -11.7251704 46.7474326 -8.25 51.30859375 C-6.10772078 53.97183704 -6.10772078 53.97183704 -3.875 56.03515625 C-0.1741311 59.78825516 1.1846296 62.51649252 1.2109375 67.78515625 C1.03983014 72.55305177 0.57321116 77.26498679 0 82 C-1.13501953 81.76990234 -1.13501953 81.76990234 -2.29296875 81.53515625 C-5.18679479 80.96307231 -8.08864902 80.47394086 -11 80 C-11 79.67 -11 79.34 -11 79 C-8.69 79 -6.38 79 -4 79 C-3.0315821 71.22037621 -2.55403935 65.04171348 -7.38134766 58.58862305 C-8.69969302 56.99818964 -10.04469021 55.44201108 -11.421875 53.90234375 C-15.6705584 49.11935623 -18.71738548 45.10135701 -19.16015625 38.67578125 C-18.56732389 28.77114307 -14.38159759 15.60311614 -7.38671875 8.3203125 C-5.95401194 7.17556909 -4.47884349 6.08448523 -3 5 C-1.15524326 2.3473782 -1.15524326 2.3473782 0 0 Z " fill="#04A9E8" transform="translate(34,71)"/>
<path d="M0 0 C2.46801758 0.10327148 2.46801758 0.10327148 5 1 C6.4128418 2.88305664 6.4128418 2.88305664 7.51171875 5.34765625 C7.92341309 6.25273926 8.33510742 7.15782227 8.75927734 8.09033203 C9.16871582 9.05052246 9.5781543 10.01071289 10 11 C10.40814941 11.93569824 10.81629883 12.87139648 11.23681641 13.83544922 C12.46012622 16.69081782 13.64172223 19.56023085 14.8125 22.4375 C15.42254883 23.90606445 15.42254883 23.90606445 16.04492188 25.40429688 C16.42841797 26.34208984 16.81191406 27.27988281 17.20703125 28.24609375 C17.5522583 29.08841553 17.89748535 29.9307373 18.25317383 30.79858398 C19 33 19 33 19 36 C17.54207116 36.05399736 16.08357288 36.09279177 14.625 36.125 C13.81289062 36.14820313 13.00078125 36.17140625 12.1640625 36.1953125 C10 36 10 36 8 34 C6.98163097 31.50936032 6.03235488 29.0305568 5.125 26.5 C4.59492602 25.0438422 4.06367656 23.58811176 3.53125 22.1328125 C3.27214844 21.42415039 3.01304687 20.71548828 2.74609375 19.98535156 C1.78049415 17.41589609 0.7052132 14.8980694 -0.375 12.375 C-1.82274631 8.79182788 -2.58672556 5.91150372 -2 2 C-1.34 1.34 -0.68 0.68 0 0 Z " fill="#EDEDEC" transform="translate(182,56)"/>
<path d="M0 0 C2.375 -0.125 2.375 -0.125 5 0 C5.66 0.66 6.32 1.32 7 2 C6.66692845 9.24217124 4.44173085 16.07052066 2.4375 23 C2.10814453 24.15628906 1.77878906 25.31257813 1.43945312 26.50390625 C0.63153335 29.33747994 -0.18173943 32.16939857 -1 35 C-4.3 35 -7.6 35 -11 35 C-10.41449029 27.85887263 -7.88448539 21.40170886 -5.5 14.6875 C-5.08363281 13.49576172 -4.66726562 12.30402344 -4.23828125 11.07617188 C-1.17816964 2.35633929 -1.17816964 2.35633929 0 0 Z " fill="#ECECEB" transform="translate(219,56)"/>
<path d="M0 0 C2 2 2 2 2.22705078 5.34814453 C2.22673375 6.77640633 2.21541361 8.20469212 2.1953125 9.6328125 C2.1924826 10.38464813 2.18965271 11.13648376 2.18673706 11.91110229 C2.17552874 14.31589578 2.15042352 16.72031881 2.125 19.125 C2.11497102 20.75390088 2.10584503 22.38280758 2.09765625 24.01171875 C2.07558735 28.00795556 2.04105351 32.00391494 2 36 C0.68 36 -0.64 36 -2 36 C-3.84349154 33.63624086 -5.31826505 31.44479538 -6.8125 28.875 C-7.23208984 28.20984375 -7.65167969 27.5446875 -8.08398438 26.859375 C-9.97244921 23.6860074 -10.99828529 21.67387933 -11.0078125 17.9296875 C-9.79167838 14.39441389 -8.08657168 11.36671215 -6.0625 8.25 C-5.70220703 7.67378906 -5.34191406 7.09757813 -4.97070312 6.50390625 C-3.45696196 4.11202794 -2.00728803 2.00728803 0 0 Z " fill="#101010" transform="translate(113,163)"/>
<path d="M0 0 C1.37478516 0.01740234 1.37478516 0.01740234 2.77734375 0.03515625 C3.69644531 0.04417969 4.61554688 0.05320313 5.5625 0.0625 C6.27277344 0.07410156 6.98304687 0.08570313 7.71484375 0.09765625 C8.95982208 2.5876129 8.84418747 4.28760536 8.84765625 7.0703125 C8.84958984 8.54274414 8.84958984 8.54274414 8.8515625 10.04492188 C8.84769531 11.07294922 8.84382813 12.10097656 8.83984375 13.16015625 C8.84371094 14.19205078 8.84757812 15.22394531 8.8515625 16.28710938 C8.85027344 17.26744141 8.84898438 18.24777344 8.84765625 19.2578125 C8.84652832 20.16152588 8.84540039 21.06523926 8.84423828 21.99633789 C8.71484375 24.09765625 8.71484375 24.09765625 7.71484375 25.09765625 C6.05055324 25.19589562 4.38202444 25.22739256 2.71484375 25.22265625 C1.35359375 25.22652344 1.35359375 25.22652344 -0.03515625 25.23046875 C-2.28515625 25.09765625 -2.28515625 25.09765625 -3.28515625 24.09765625 C-3.38447778 22.40206899 -3.41595632 20.70239878 -3.41796875 19.00390625 C-3.41990234 17.45896484 -3.41990234 17.45896484 -3.421875 15.8828125 C-3.41800781 14.79871094 -3.41414063 13.71460938 -3.41015625 12.59765625 C-3.41402344 11.51355469 -3.41789062 10.42945313 -3.421875 9.3125 C-3.42058594 8.28253906 -3.41929688 7.25257813 -3.41796875 6.19140625 C-3.41684082 5.23943359 -3.41571289 4.28746094 -3.41455078 3.30664062 C-3.23687486 0.27341087 -3.04064217 0.12994197 0 0 Z " fill="#0F100F" transform="translate(63.28515625,169.90234375)"/>
<path d="M0 0 C0.8146875 0.00257813 1.629375 0.00515625 2.46875 0.0078125 C3.2834375 0.00523437 4.098125 0.00265625 4.9375 0 C6.96875 0.1328125 6.96875 0.1328125 7.96875 1.1328125 C8.05601223 2.91352496 8.07574041 4.6976439 8.06640625 6.48046875 C8.06318359 7.56005859 8.05996094 8.63964844 8.05664062 9.75195312 C8.04826172 10.88826172 8.03988281 12.02457031 8.03125 13.1953125 C8.02673828 14.33548828 8.02222656 15.47566406 8.01757812 16.65039062 C8.00574747 19.47791601 7.9892641 22.3053389 7.96875 25.1328125 C6.32300434 25.15969401 4.67713587 25.17915373 3.03125 25.1953125 C2.11472656 25.20691406 1.19820312 25.21851563 0.25390625 25.23046875 C-2.03125 25.1328125 -2.03125 25.1328125 -3.03125 24.1328125 C-3.13057153 22.43722524 -3.16205007 20.73755503 -3.1640625 19.0390625 C-3.16599609 17.49412109 -3.16599609 17.49412109 -3.16796875 15.91796875 C-3.16410156 14.83386719 -3.16023437 13.74976563 -3.15625 12.6328125 C-3.16011719 11.54871094 -3.16398438 10.46460938 -3.16796875 9.34765625 C-3.16667969 8.31769531 -3.16539062 7.28773438 -3.1640625 6.2265625 C-3.16293457 5.27458984 -3.16180664 4.32261719 -3.16064453 3.34179688 C-2.99263632 0.47361134 -2.8642351 0.18727691 0 0 Z " fill="#131414" transform="translate(221.03125,169.8671875)"/>
<path d="M0 0 C5.29441695 -0.50423019 7.81413519 0.81076967 12 4 C11.56570637 10.31314637 8.50038104 15.29233535 5.5625 20.75 C5.05912109 21.70777344 4.55574219 22.66554688 4.03710938 23.65234375 C0.28847509 30.71152491 0.28847509 30.71152491 -2 33 C-4.625 32.625 -4.625 32.625 -7 32 C-6.67 31.34 -6.34 30.68 -6 30 C-5.34 30 -4.68 30 -4 30 C-3.71125 29.278125 -3.4225 28.55625 -3.125 27.8125 C-2 25 -2 25 -0.875 22.75 C0.37217062 18.8303209 0.15998041 15.07950054 0 11 C-0.66 11 -1.32 11 -2 11 C-1.34 7.37 -0.68 3.74 0 0 Z " fill="#ECECEB" transform="translate(68,76)"/>
<path d="M0 0 C2.5 2.5 2.5 2.5 5 5 C6.3921875 6.11375 6.3921875 6.11375 7.8125 7.25 C10.99813945 11.25480387 10.37467349 13.97937529 10 19 C4.39 19 -1.22 19 -7 19 C-7.63982681 12.51032805 -7.61749529 9.08607552 -3.5 3.875 C-2.35609115 2.56313628 -1.19671511 1.2638777 0 0 Z " fill="#0F1314" transform="translate(96,131)"/>
<path d="M0 0 C5.05969255 0.44599114 9.87698207 1.65536779 14.6953125 3.2265625 C13.7053125 6.5265625 12.7153125 9.8265625 11.6953125 13.2265625 C4.66857735 12.72312263 -2.32409659 12.18468282 -9.3046875 11.2265625 C-7.76402706 6.46452114 -5.58437275 0.54897224 0 0 Z " fill="#EBEBEA" transform="translate(49.3046875,70.7734375)"/>
<path d="M0 0 C1.52025035 1.52025035 1.4065868 3.21424537 1.75 5.3125 C2.47993728 8.71887396 2.84022689 9.8315905 5.3125 12.4375 C7.83163908 13.90211574 10.24556671 15.05562287 13 16 C12.67 17.32 12.34 18.64 12 20 C5.54859495 19.7014774 2.36289026 17.4928868 -2.375 13.25 C-3.00277344 12.7240625 -3.63054687 12.198125 -4.27734375 11.65625 C-7.01570409 9.26683838 -8.75363923 7.6996646 -9.9765625 4.2265625 C-10 2 -10 2 -9 0.125 C-5.87102675 -1.63504746 -3.39386206 -0.75419157 0 0 Z " fill="#EEEEED" transform="translate(192,95)"/>
<path d="M0 0 C1.65 0 3.3 0 5 0 C3.68 2.31 2.36 4.62 1 7 C0.40832031 6.96519531 -0.18335937 6.93039063 -0.79296875 6.89453125 C-5.69023752 6.72676185 -9.08879412 6.68140107 -13 10 C-15.32956275 13.53714042 -15.30813133 16.78649898 -15.4140625 20.953125 C-15.43342865 21.61334656 -15.4527948 22.27356812 -15.4727478 22.95379639 C-15.53229349 25.05240153 -15.57882722 27.15106228 -15.625 29.25 C-15.66320294 30.6771066 -15.70225602 32.10419072 -15.7421875 33.53125 C-15.8379733 37.02062691 -15.92209642 40.51017286 -16 44 C-19.87237081 38.19144378 -19.25490993 32.51491407 -19.3125 25.75 C-19.34150391 24.62980469 -19.37050781 23.50960937 -19.40039062 22.35546875 C-19.46073335 14.49234759 -18.76037336 9.83029766 -13.109375 4.07421875 C-10.35402648 2.671032 -8.32478222 2.70268635 -5.25 2.8125 C-4.26515625 2.83957031 -3.2803125 2.86664063 -2.265625 2.89453125 C-1.51796875 2.92933594 -0.7703125 2.96414062 0 3 C0 2.01 0 1.02 0 0 Z " fill="#03B2F5" transform="translate(118,37)"/>
<path d="M0 0 C3.23346013 0.09137667 6.46697552 0.16591142 9.70092773 0.23754883 C11.78753998 0.28801032 13.8741298 0.33940981 15.96069336 0.3918457 C17.38760246 0.42632561 17.38760246 0.42632561 18.84333801 0.46150208 C24.90243161 0.63693449 30.88727681 1.09311389 36.90991211 1.77856445 C36.90991211 2.10856445 36.90991211 2.43856445 36.90991211 2.77856445 C12.81991211 2.77856445 -11.27008789 2.77856445 -36.09008789 2.77856445 C-36.09008789 2.44856445 -36.09008789 2.11856445 -36.09008789 1.77856445 C-24.01656594 -0.45295379 -12.23649866 -0.34662449 0 0 Z " fill="#05A7E7" transform="translate(202.090087890625,212.221435546875)"/>
<path d="M0 0 C7.71484375 -0.09765625 7.71484375 -0.09765625 10 0 C11 1 11 1 11.09765625 3.50390625 C11.06510417 6.3359375 11.03255208 9.16796875 11 12 C7.37 12 3.74 12 0 12 C0 8.04 0 4.08 0 0 Z " fill="#161717" transform="translate(186,170)"/>
<path d="M0 0 C8.11111111 6.66666667 8.11111111 6.66666667 10 10 C10 11.32 10 12.64 10 14 C5.71 14 1.42 14 -3 14 C-3.37211538 3.45673077 -3.37211538 3.45673077 -1.48828125 1.14453125 C-0.99714844 0.76683594 -0.50601563 0.38914063 0 0 Z " fill="#0F1011" transform="translate(169,136)"/>
<path d="M0 0 C0.66 0 1.32 0 2 0 C2 3.63 2 7.26 2 11 C7.61 11 13.22 11 19 11 C19.66 7.37 20.32 3.74 21 0 C21.33 0 21.66 0 22 0 C22 4.62 22 9.24 22 14 C14.41 14 6.82 14 -1 14 C-1 3 -1 3 0 0 Z " fill="#02BBFD" transform="translate(87,139)"/>
<path d="M0 0 C1.37478516 0.01740234 1.37478516 0.01740234 2.77734375 0.03515625 C3.69644531 0.04417969 4.61554688 0.05320313 5.5625 0.0625 C6.27277344 0.07410156 6.98304687 0.08570313 7.71484375 0.09765625 C8.95982208 2.5876129 8.84418747 4.28760536 8.84765625 7.0703125 C8.84958984 8.54274414 8.84958984 8.54274414 8.8515625 10.04492188 C8.84769531 11.07294922 8.84382813 12.10097656 8.83984375 13.16015625 C8.84371094 14.19205078 8.84757812 15.22394531 8.8515625 16.28710938 C8.85027344 17.26744141 8.84898438 18.24777344 8.84765625 19.2578125 C8.84652832 20.16152588 8.84540039 21.06523926 8.84423828 21.99633789 C8.71484375 24.09765625 8.71484375 24.09765625 7.71484375 25.09765625 C6.05055324 25.19589562 4.38202444 25.22739256 2.71484375 25.22265625 C1.35359375 25.22652344 1.35359375 25.22652344 -0.03515625 25.23046875 C-2.28515625 25.09765625 -2.28515625 25.09765625 -3.28515625 24.09765625 C-3.38447778 22.40206899 -3.41595632 20.70239878 -3.41796875 19.00390625 C-3.41990234 17.45896484 -3.41990234 17.45896484 -3.421875 15.8828125 C-3.41800781 14.79871094 -3.41414063 13.71460938 -3.41015625 12.59765625 C-3.41402344 11.51355469 -3.41789062 10.42945313 -3.421875 9.3125 C-3.42058594 8.28253906 -3.41929688 7.25257813 -3.41796875 6.19140625 C-3.41684082 5.23943359 -3.41571289 4.28746094 -3.41455078 3.30664062 C-3.23687486 0.27341087 -3.04064217 0.12994197 0 0 Z M-1.28515625 2.09765625 C-1.28515625 9.35765625 -1.28515625 16.61765625 -1.28515625 24.09765625 C1.35484375 24.09765625 3.99484375 24.09765625 6.71484375 24.09765625 C6.71484375 16.83765625 6.71484375 9.57765625 6.71484375 2.09765625 C4.07484375 2.09765625 1.43484375 2.09765625 -1.28515625 2.09765625 Z " fill="#333334" transform="translate(63.28515625,169.90234375)"/>
<path d="M0 0 C2 1 2 1 3.125 3.3125 C4 6 4 6 4 10 C2.50310226 11.2365677 1.00117941 12.46873334 -0.546875 13.640625 C-2.73451791 15.68712966 -3.14354504 18.18593369 -4 21 C-5.32 21.99 -6.64 22.98 -8 24 C-8 20.04 -8 16.08 -8 12 C-6.35 11.34 -4.7 10.68 -3 10 C-0.8409794 7.01849536 -0.90284611 4.59469411 -1 1 C-0.67 0.67 -0.34 0.34 0 0 Z " fill="#04ADED" transform="translate(179,79)"/>
<path d="M0 0 C0.33 0 0.66 0 1 0 C1.33 3.3 1.66 6.6 2 10 C3.03125 10.061875 4.0625 10.12375 5.125 10.1875 C9.88462827 11.18548657 11.53592963 12.70490867 15 16 C13.02 16.99 13.02 16.99 11 18 C10.60167969 17.51917969 10.20335937 17.03835937 9.79296875 16.54296875 C7.56549753 14.62608175 6.21165331 14.52258357 3.3125 14.3125 C2.50425781 14.24675781 1.69601563 14.18101562 0.86328125 14.11328125 C0.24839844 14.07589844 -0.36648437 14.03851563 -1 14 C-2.29243536 9.8803623 -3.26252625 6.33168317 -3 2 C-2.34 2 -1.68 2 -1 2 C-0.67 1.34 -0.34 0.68 0 0 Z " fill="#06A0DA" transform="translate(233,140)"/>
<path d="M0 0 C8.69262672 0.79403802 17.34291147 1.89369712 26 3 C26 3.99 26 4.98 26 6 C16.85495156 6.40411834 8.82365744 5.42614476 0 3 C0 2.01 0 1.02 0 0 Z " fill="#242424" transform="translate(48,136)"/>
<path d="M0 0 C0.33 0 0.66 0 1 0 C1 3.63 1 7.26 1 11 C2.7015625 10.9690625 2.7015625 10.9690625 4.4375 10.9375 C8 11 8 11 9 12 C11.33297433 12.04092937 13.66705225 12.04241723 16 12 C16.33 10.68 16.66 9.36 17 8 C17.66 8.33 18.32 8.66 19 9 C19 10.65 19 12.3 19 14 C12.4 14 5.8 14 -1 14 C-1 3.875 -1 3.875 0 0 Z " fill="#02B6FA" transform="translate(164,139)"/>
<path d="M0 0 C2.53828252 0.47005232 4.16776233 1.10595515 6.375 2.5 C9.29045347 4.16597341 11.68769281 4.614848 15 5 C14.67 6.32 14.34 7.64 14 9 C14.99 9.33 15.98 9.66 17 10 C10.39952893 10.82505888 6.6921847 9.76238819 1.43359375 5.703125 C0 4 0 4 0 0 Z " fill="#1E1F1F" transform="translate(179,119)"/>
<path d="M0 0 C1.32 0.33 2.64 0.66 4 1 C3.835 1.825 3.67 2.65 3.5 3.5 C2.30111918 11.55648041 2.30111918 11.55648041 5 19 C3.33333333 19 1.66666667 19 0 19 C-1.81488696 15.17552555 -2.16675595 12.56704606 -1.6875 8.375 C-1.58824219 7.43398437 -1.48898437 6.49296875 -1.38671875 5.5234375 C-1 3 -1 3 0 0 Z " fill="#05A3E0" transform="translate(17,99)"/>
<path d="M0 0 C0.66 0.33 1.32 0.66 2 1 C2 1.66 2 2.32 2 3 C3.98567708 2.96744792 5.97135417 2.93489583 7.95703125 2.90234375 C10 3 10 3 13 4 C13.33 3.01 13.66 2.02 14 1 C14.66 3.97 15.32 6.94 16 10 C14.68 9.525625 13.36 9.05125 12 8.5625 C7.63935605 7.0974342 3.57325799 6.41575073 -1 6 C-1.042721 4.33388095 -1.04063832 2.66617115 -1 1 C-0.67 0.67 -0.34 0.34 0 0 Z " fill="#04ACED" transform="translate(86,74)"/>
<path d="M0 0 C0.66 0 1.32 0 2 0 C1.37291898 7.65038846 1.37291898 7.65038846 -0.5 9.40625 C-2.65471119 11.69563064 -2.50585767 13.5995804 -2.6875 16.6875 C-2.75324219 17.68136719 -2.81898438 18.67523438 -2.88671875 19.69921875 C-2.92410156 20.45847656 -2.96148437 21.21773437 -3 22 C-3.33 22 -3.66 22 -4 22 C-4.33 20.02 -4.66 18.04 -5 16 C-5.33 18.97 -5.66 21.94 -6 25 C-6.33 25 -6.66 25 -7 25 C-7.86176015 9.94792269 -7.86176015 9.94792269 -4.625 6.3125 C-3.75875 5.549375 -2.8925 4.78625 -2 4 C-0.72147713 1.78412652 -0.72147713 1.78412652 0 0 Z " fill="#0798D1" transform="translate(169,128)"/>
<path d="M0 0 C0.99 0.33 1.98 0.66 3 1 C3 10.24 3 19.48 3 29 C2.67 29 2.34 29 2 29 C1.92652344 27.93458984 1.92652344 27.93458984 1.8515625 26.84765625 C1.73941406 25.46900391 1.73941406 25.46900391 1.625 24.0625 C1.55539063 23.14597656 1.48578125 22.22945312 1.4140625 21.28515625 C1.20910156 20.15400391 1.20910156 20.15400391 1 19 C0.34 18.67 -0.32 18.34 -1 18 C-0.505 9.09 -0.505 9.09 0 0 Z " fill="#080808" transform="translate(206,167)"/>
<path d="M0 0 C2 2 2 2 2.875 5.3125 C4.02277936 9.07466567 5.38227303 11.12050033 8 14 C7.01 14.99 6.02 15.98 5 17 C2.14076213 15.34722104 -0.11179495 13.73660403 -2 11 C-2.02656735 7.12648066 -1.14707503 3.68374951 0 0 Z " fill="#05A4E1" transform="translate(226,81)"/>
<path d="M0 0 C0.5625 1.9375 0.5625 1.9375 1 4 C0.67 4.33 0.34 4.66 0 5 C0.04125 6.11375 0.0825 7.2275 0.125 8.375 C0 12 0 12 -1.375 13.9375 C-3 15 -3 15 -5 15 C-5.08078641 12.87561661 -5.13909141 10.7503677 -5.1875 8.625 C-5.22230469 7.44164063 -5.25710937 6.25828125 -5.29296875 5.0390625 C-5.19628906 4.03617187 -5.09960938 3.03328125 -5 2 C-2 0 -2 0 0 0 Z " fill="#0891C5" transform="translate(179,75)"/>
<path d="M0 0 C0.33 0.99 0.66 1.98 1 3 C-3.00667513 4.25208598 -5.80861186 3.673331 -9.796875 2.546875 C-13.47940979 1.63277062 -17.22713135 1.33187271 -21 1 C-21 0.67 -21 0.34 -21 0 C-13.46322145 -2.12533885 -7.57763744 -1.87280013 0 0 Z " fill="#059FDC" transform="translate(67,64)"/>
<path d="M0 0 C0.33 0 0.66 0 1 0 C1 2.97 1 5.94 1 9 C1.81984375 8.97679687 2.6396875 8.95359375 3.484375 8.9296875 C5.10085937 8.90261719 5.10085937 8.90261719 6.75 8.875 C8.35101563 8.84019531 8.35101563 8.84019531 9.984375 8.8046875 C13 9 13 9 17 11 C11.06 11 5.12 11 -1 11 C-1 2 -1 2 0 0 Z " fill="#03AFF4" transform="translate(88,141)"/>
<path d="M0 0 C1.32 0.33 2.64 0.66 4 1 C3.67 11.89 3.34 22.78 3 34 C2.67 34 2.34 34 2 34 C1.97494385 33.1121582 1.9498877 32.22431641 1.92407227 31.30957031 C1.82878203 28.00703963 1.72955793 24.70467541 1.62768555 21.40234375 C1.58444682 19.97465612 1.54276415 18.54692046 1.50268555 17.11914062 C1.44471398 15.06365504 1.38109825 13.00840872 1.31640625 10.953125 C1.27974854 9.71723633 1.24309082 8.48134766 1.20532227 7.20800781 C1.04020181 4.62812342 0.7535613 2.45644894 0 0 Z " fill="#03BDFC" transform="translate(245,157)"/>
<path d="M0 0 C0.33 0 0.66 0 1 0 C2.2982126 5.76081841 3.25706972 11.08739655 3 17 C2.29875 16.855625 1.5975 16.71125 0.875 16.5625 C-2.07556141 15.98521625 -5.03270151 15.48304859 -8 15 C-8 14.67 -8 14.34 -8 14 C-5.69 14 -3.38 14 -1 14 C-0.67 9.38 -0.34 4.76 0 0 Z " fill="#0798D0" transform="translate(31,136)"/>
<path d="M0 0 C2.97 0 5.94 0 9 0 C8.34 0.66 7.68 1.32 7 2 C7.33 2.99 7.66 3.98 8 5 C7.5625 7.6875 7.5625 7.6875 7 10 C6.67 8.68 6.34 7.36 6 6 C5.34 6 4.68 6 4 6 C3.67 7.65 3.34 9.3 3 11 C2.67 11 2.34 11 2 11 C1.87625 9.865625 1.7525 8.73125 1.625 7.5625 C1.41875 6.386875 1.2125 5.21125 1 4 C0.34 3.67 -0.32 3.34 -1 3 C-0.67 2.01 -0.34 1.02 0 0 Z " fill="#2D2E2D" transform="translate(191,92)"/>
<path d="M0 0 C1.32 0.66 2.64 1.32 4 2 C2.35 4.64 0.7 7.28 -1 10 C-2.65 9.67 -4.3 9.34 -6 9 C-5.67 8.34 -5.34 7.68 -5 7 C-4.34 7 -3.68 7 -3 7 C-2.690625 6.21625 -2.38125 5.4325 -2.0625 4.625 C-1 2 -1 2 0 0 Z " fill="#E3E2E1" transform="translate(67,99)"/>
<path d="M0 0 C5.50366792 -0.32374517 9.43672206 -0.53286034 14 3 C10.71480525 4.09506492 8.26336585 4.09960608 4.8125 4.0625 C3.18248047 4.04896484 3.18248047 4.04896484 1.51953125 4.03515625 C0.68808594 4.02355469 -0.14335937 4.01195312 -1 4 C-0.67 2.68 -0.34 1.36 0 0 Z " fill="#03B4F7" transform="translate(217,46)"/>
<path d="M0 0 C0.33 0.66 0.66 1.32 1 2 C1.66 2 2.32 2 3 2 C1.9802693 5.77300358 1.34127338 6.80206144 -2.125 8.8125 C-3.07375 9.204375 -4.0225 9.59625 -5 10 C-5 9.34 -5 8.68 -5 8 C-5.99 7.67 -6.98 7.34 -8 7 C-6.20963542 6.05598958 -4.41927083 5.11197917 -2.62890625 4.16796875 C-0.67732013 3.00980201 -0.67732013 3.00980201 0 0 Z " fill="#05A7E4" transform="translate(245,204)"/>
<path d="M0 0 C0.33 0 0.66 0 1 0 C1.33 4.95 1.66 9.9 2 15 C0.68 15.33 -0.64 15.66 -2 16 C-2.625 14.1875 -2.625 14.1875 -3 12 C-2.34 11.01 -1.68 10.02 -1 9 C-0.54605448 6.72087062 -0.54605448 6.72087062 -0.375 4.3125 C-0.30023438 3.50425781 -0.22546875 2.69601563 -0.1484375 1.86328125 C-0.09945312 1.24839844 -0.05046875 0.63351563 0 0 Z " fill="#393939" transform="translate(207,120)"/>
<path d="M0 0 C0.99 0.99 1.98 1.98 3 3 C3.66 2.67 4.32 2.34 5 2 C5.3125 4.75 5.3125 4.75 5 8 C2.5 10.375 2.5 10.375 0 12 C0 8.04 0 4.08 0 0 Z " fill="#06A2DD" transform="translate(171,91)"/>
<path d="M0 0 C3.6875 -0.3125 3.6875 -0.3125 7 0 C7.33 0.66 7.66 1.32 8 2 C2.555 3.485 2.555 3.485 -3 5 C-1.9375 2.5 -1.9375 2.5 0 0 Z " fill="#04B0F0" transform="translate(181,46)"/>
<path d="M0 0 C0.33 0 0.66 0 1 0 C0.88490339 1.41750563 0.75746342 2.83401169 0.625 4.25 C0.55539063 5.03890625 0.48578125 5.8278125 0.4140625 6.640625 C0 9 0 9 -2 13 C-2.33 9.37 -2.66 5.74 -3 2 C-2.34 2 -1.68 2 -1 2 C-0.67 1.34 -0.34 0.68 0 0 Z " fill="#0797D0" transform="translate(233,140)"/>
<path d="M0 0 C3.79588866 0.54226981 5.47211993 2.20127563 8 5 C7.01 5.66 6.02 6.32 5 7 C3.02 5.68 1.04 4.36 -1 3 C-0.67 2.01 -0.34 1.02 0 0 Z " fill="#05A7E3" transform="translate(79,69)"/>
<path d="M0 0 C1.99097846 2.98646769 2.94124926 5.59687262 4 9 C2.68 9.99 1.36 10.98 0 12 C0 8.04 0 4.08 0 0 Z " fill="#0F181D" transform="translate(175,78)"/>
<path d="M0 0 C0 0.33 0 0.66 0 1 C-1.670625 1.2165625 -1.670625 1.2165625 -3.375 1.4375 C-6.82142047 1.78372035 -6.82142047 1.78372035 -9 3 C-11.125 2.0625 -11.125 2.0625 -13 1 C-9.08906687 -3.42105484 -5.00524738 -1.48660125 0 0 Z " fill="#06A1DB" transform="translate(132,35)"/>
<path d="M0 0 C1.98 0.495 1.98 0.495 4 1 C3.67 2.98 3.34 4.96 3 7 C2.01 7 1.02 7 0 7 C-0.93423645 3.98968256 -1.04449911 3.13349732 0 0 Z " fill="#0697D0" transform="translate(17,99)"/>
<path d="M0 0 C0.268125 0.556875 0.53625 1.11375 0.8125 1.6875 C1.99898377 4.0839757 1.99898377 4.0839757 3.625 6.5625 C5 9 5 9 5 12 C0.68393782 9.09326425 0.68393782 9.09326425 -1 7 C-0.875 3.1875 -0.875 3.1875 0 0 Z " fill="#079AD2" transform="translate(225,85)"/>
<path d="M0 0 C0.33 0 0.66 0 1 0 C1 2.31 1 4.62 1 7 C2.65 7 4.3 7 6 7 C5.67 7.66 5.34 8.32 5 9 C3.02 9 1.04 9 -1 9 C-0.67 6.03 -0.34 3.06 0 0 Z " fill="#059FDC" transform="translate(159,48)"/>
<path d="M0 0 C0.66 0.33 1.32 0.66 2 1 C2 2.32 2 3.64 2 5 C1.01 4.67 0.02 4.34 -1 4 C-1.33 6.31 -1.66 8.62 -2 11 C-2.33 11 -2.66 11 -3 11 C-3.32613618 6.32538149 -2.70582788 3.83325617 0 0 Z " fill="#06A3DF" transform="translate(88,135)"/>
<path d="M0 0 C4 4 4 4 4.171875 6.359375 C4.03265625 7.14828125 3.8934375 7.9371875 3.75 8.75 C3.62109375 9.54921875 3.4921875 10.3484375 3.359375 11.171875 C3.24078125 11.77515625 3.1221875 12.3784375 3 13 C2.67 13 2.34 13 2 13 C1.34 8.71 0.68 4.42 0 0 Z " fill="#03B7F9" transform="translate(237,100)"/>
<path d="M0 0 C0.33 0 0.66 0 1 0 C1.06058594 0.75925781 1.12117188 1.51851562 1.18359375 2.30078125 C1.26738281 3.29464844 1.35117188 4.28851563 1.4375 5.3125 C1.51871094 6.29863281 1.59992188 7.28476563 1.68359375 8.30078125 C1.91812559 11.09375599 1.91812559 11.09375599 3 14 C2.01 14.33 1.02 14.66 0 15 C0 10.05 0 5.1 0 0 Z " fill="#181F21" transform="translate(93,163)"/>
<path d="M0 0 C1.65 1.32 3.3 2.64 5 4 C4.67 5.65 4.34 7.3 4 9 C1.18167487 7.59083743 0.97406539 5.92219617 0 3 C0 2.01 0 1.02 0 0 Z " fill="#03B3F7" transform="translate(196,60)"/>
<path d="M0 0 C0.99 0 1.98 0 3 0 C2.67 1.98 2.34 3.96 2 6 C1.01 6 0.02 6 -1 6 C-0.67 4.02 -0.34 2.04 0 0 Z " fill="#03B3F6" transform="translate(231,66)"/>
<path d="M0 0 C0.99 0 1.98 0 3 0 C2.34 1.65 1.68 3.3 1 5 C0.01 5 -0.98 5 -2 5 C-1.125 1.125 -1.125 1.125 0 0 Z " fill="#03AFF3" transform="translate(37,68)"/>
<path d="M0 0 C1.485 0.99 1.485 0.99 3 2 C3.40843923 4.71203652 3.13336867 7.2437142 3 10 C0.70366176 6.55549263 0.45983515 4.06187717 0 0 Z " fill="#05A4E1" transform="translate(32,132)"/>
<path d="M0 0 C0.33 0.66 0.66 1.32 1 2 C1.99 2 2.98 2 4 2 C3.67 3.98 3.34 5.96 3 8 C2.34 7.67 1.68 7.34 1 7 C0.59270772 4.67843403 0.25561323 2.3431213 0 0 Z " fill="#0698D1" transform="translate(229,70)"/>
<path d="M0 0 C0.7734375 0.2165625 0.7734375 0.2165625 1.5625 0.4375 C4.68509571 1.15809901 7.82550692 1.57266439 11 2 C10.67 2.66 10.34 3.32 10 4 C7.36 4 4.72 4 2 4 C1.34 2.68 0.68 1.36 0 0 Z " fill="#05A5E4" transform="translate(107,40)"/>
</svg>
